<svg height="490pt" viewBox="0 -42 490.66667 490" width="490pt" xmlns="http://www.w3.org/2000/svg"><path d="m288 405.667969c-158.804688 0-288-129.195313-288-288 0-5.890625 4.777344-10.667969 10.667969-10.667969 5.886719 0 10.664062 4.777344 10.664062 10.667969 0 147.050781 119.617188 266.664062 266.667969 266.664062 5.886719 0 10.667969 4.78125 10.667969 10.667969s-4.78125 10.667969-10.667969 10.667969zm0 0"/><path d="m288 405.667969c-5.886719 0-10.667969-4.78125-10.667969-10.667969s4.78125-10.667969 10.667969-10.667969c99.988281 0 181.332031-81.34375 181.332031-181.332031 0-5.886719 4.78125-10.667969 10.667969-10.667969s10.667969 4.78125 10.667969 10.667969c0 111.742188-90.925781 202.667969-202.667969 202.667969zm0 0"/><path d="m480 213.667969c-5.886719 0-10.667969-4.78125-10.667969-10.667969 0-99.988281-81.34375-181.332031-181.332031-181.332031-5.886719 0-10.667969-4.78125-10.667969-10.667969s4.78125-10.667969 10.667969-10.667969c111.742188 0 202.667969 90.925781 202.667969 202.667969 0 5.886719-4.78125 10.667969-10.667969 10.667969zm0 0"/><path d="m138.667969 171c-5.890625 0-10.667969-4.777344-10.667969-10.667969 0-88.234375 71.765625-160 160-160 5.886719 0 10.667969 4.78125 10.667969 10.667969s-4.78125 10.667969-10.667969 10.667969c-76.457031 0-138.667969 62.207031-138.667969 138.664062 0 5.890625-4.777343 10.667969-10.664062 10.667969zm0 0"/><path d="m266.667969 299c-76.460938 0-138.667969-62.207031-138.667969-138.667969 0-5.886719 4.777344-10.664062 10.667969-10.664062 5.886719 0 10.664062 4.777343 10.664062 10.664062 0 64.683594 52.652344 117.335938 117.335938 117.335938 5.886719 0 10.664062 4.777343 10.664062 10.664062 0 5.890625-4.777343 10.667969-10.664062 10.667969zm0 0"/><path d="m266.667969 299c-5.890625 0-10.667969-4.777344-10.667969-10.667969 0-5.886719 4.777344-10.664062 10.667969-10.664062 52.925781 0 96-43.074219 96-96 0-5.890625 4.777343-10.667969 10.664062-10.667969 5.890625 0 10.667969 4.777344 10.667969 10.667969 0 64.679687-52.652344 117.332031-117.332031 117.332031zm0 0"/><path d="m373.332031 192.332031c-5.886719 0-10.664062-4.777343-10.664062-10.664062 0-41.175781-33.496094-74.667969-74.667969-74.667969-5.886719 0-10.667969-4.777344-10.667969-10.667969 0-5.886719 4.78125-10.664062 10.667969-10.664062 52.929688 0 96 43.070312 96 96 0 5.886719-4.777344 10.664062-10.667969 10.664062zm0 0"/><path d="m224 171c-5.886719 0-10.667969-4.777344-10.667969-10.667969 0-41.171875 33.496094-74.664062 74.667969-74.664062 5.886719 0 10.667969 4.777343 10.667969 10.664062 0 5.890625-4.78125 10.667969-10.667969 10.667969-29.417969 0-53.332031 23.914062-53.332031 53.332031 0 5.890625-4.78125 10.667969-10.667969 10.667969zm0 0"/><path d="m309.332031 213.667969h-42.664062c-29.421875 0-53.335938-23.914063-53.335938-53.335938 0-5.886719 4.78125-10.664062 10.667969-10.664062s10.667969 4.777343 10.667969 10.664062c0 17.644531 14.355469 32 32 32h42.664062c5.890625 0 10.667969 4.78125 10.667969 10.667969s-4.777344 10.667969-10.667969 10.667969zm0 0"/><path d="m266.667969 256.332031c-2.730469 0-5.460938-1.042969-7.554688-3.113281-4.160156-4.160156-4.160156-10.921875 0-15.082031l35.136719-35.136719-35.113281-35.113281c-4.160157-4.160157-4.160157-10.925781 0-15.085938 4.160156-4.15625 10.921875-4.15625 15.082031 0l42.667969 42.667969c4.160156 4.160156 4.160156 10.921875 0 15.082031l-42.667969 42.667969c-2.089844 2.070312-4.820312 3.113281-7.550781 3.113281zm0 0"/></svg>